<svg xmlns="http://www.w3.org/2000/svg" xmlns:xlink="http://www.w3.org/1999/xlink" zoomAndPan="magnify" preserveAspectRatio="xMidYMid meet" version="1.0" viewBox="16.06 30.94 279.76 143.51"><defs><g/></defs><g fill="#e6e6dd" fill-opacity="1"><g transform="translate(15.150864, 51.983179)"><g><path d="M 8.03125 0 C 7.78125 0 7.578125 -0.078125 7.421875 -0.234375 C 7.273438 -0.398438 7.203125 -0.585938 7.203125 -0.796875 L 7.203125 -17.734375 L 8.84375 -17.734375 L 8.84375 -0.796875 C 8.84375 -0.585938 8.765625 -0.398438 8.609375 -0.234375 C 8.453125 -0.078125 8.257812 0 8.03125 0 Z M 1.703125 -17.09375 C 1.484375 -17.09375 1.296875 -17.160156 1.140625 -17.296875 C 0.984375 -17.441406 0.90625 -17.628906 0.90625 -17.859375 C 0.90625 -18.066406 0.984375 -18.242188 1.140625 -18.390625 C 1.296875 -18.535156 1.484375 -18.609375 1.703125 -18.609375 L 14.359375 -18.609375 C 14.566406 -18.609375 14.75 -18.535156 14.90625 -18.390625 C 15.070312 -18.242188 15.15625 -18.054688 15.15625 -17.828125 C 15.15625 -17.597656 15.070312 -17.414062 14.90625 -17.28125 C 14.75 -17.15625 14.566406 -17.09375 14.359375 -17.09375 Z M 1.703125 -17.09375 "/></g></g></g><g fill="#e6e6dd" fill-opacity="1"><g transform="translate(31.206635, 51.983179)"><g><path d="M 8.296875 -13.6875 C 9.410156 -13.6875 10.3125 -13.445312 11 -12.96875 C 11.695312 -12.488281 12.207031 -11.84375 12.53125 -11.03125 C 12.851562 -10.21875 13.015625 -9.3125 13.015625 -8.3125 L 13.015625 -0.796875 C 13.015625 -0.585938 12.9375 -0.398438 12.78125 -0.234375 C 12.625 -0.078125 12.4375 0 12.21875 0 C 11.976562 0 11.785156 -0.078125 11.640625 -0.234375 C 11.492188 -0.398438 11.421875 -0.585938 11.421875 -0.796875 L 11.421875 -8.3125 C 11.421875 -9.039062 11.3125 -9.695312 11.09375 -10.28125 C 10.875 -10.863281 10.515625 -11.328125 10.015625 -11.671875 C 9.523438 -12.023438 8.863281 -12.203125 8.03125 -12.203125 C 7.28125 -12.203125 6.570312 -12.023438 5.90625 -11.671875 C 5.25 -11.328125 4.710938 -10.863281 4.296875 -10.28125 C 3.890625 -9.695312 3.6875 -9.039062 3.6875 -8.3125 L 3.6875 -0.796875 C 3.6875 -0.585938 3.609375 -0.398438 3.453125 -0.234375 C 3.296875 -0.078125 3.109375 0 2.890625 0 C 2.648438 0 2.457031 -0.078125 2.3125 -0.234375 C 2.164062 -0.398438 2.09375 -0.585938 2.09375 -0.796875 L 2.09375 -18.875 C 2.09375 -19.082031 2.164062 -19.265625 2.3125 -19.421875 C 2.46875 -19.585938 2.660156 -19.671875 2.890625 -19.671875 C 3.128906 -19.671875 3.320312 -19.585938 3.46875 -19.421875 C 3.613281 -19.265625 3.6875 -19.082031 3.6875 -18.875 L 3.6875 -10.265625 L 3.078125 -9.328125 C 3.117188 -9.878906 3.289062 -10.414062 3.59375 -10.9375 C 3.90625 -11.457031 4.3125 -11.925781 4.8125 -12.34375 C 5.3125 -12.757812 5.859375 -13.085938 6.453125 -13.328125 C 7.054688 -13.566406 7.671875 -13.6875 8.296875 -13.6875 Z M 8.296875 -13.6875 "/></g></g></g><g fill="#e6e6dd" fill-opacity="1"><g transform="translate(46.305438, 51.983179)"><g><path d="M 8.234375 0.265625 C 6.867188 0.265625 5.664062 -0.0234375 4.625 -0.609375 C 3.582031 -1.191406 2.765625 -2.003906 2.171875 -3.046875 C 1.585938 -4.097656 1.296875 -5.320312 1.296875 -6.71875 C 1.296875 -8.226562 1.59375 -9.515625 2.1875 -10.578125 C 2.78125 -11.640625 3.550781 -12.457031 4.5 -13.03125 C 5.445312 -13.613281 6.453125 -13.90625 7.515625 -13.90625 C 8.296875 -13.90625 9.050781 -13.765625 9.78125 -13.484375 C 10.519531 -13.210938 11.175781 -12.804688 11.75 -12.265625 C 12.332031 -11.722656 12.796875 -11.0625 13.140625 -10.28125 C 13.484375 -9.5 13.675781 -8.597656 13.71875 -7.578125 C 13.695312 -7.359375 13.601562 -7.171875 13.4375 -7.015625 C 13.28125 -6.867188 13.097656 -6.796875 12.890625 -6.796875 L 2.234375 -6.796875 L 1.90625 -8.234375 L 12.390625 -8.234375 L 12.046875 -7.921875 L 12.046875 -8.453125 C 11.972656 -9.285156 11.703125 -9.992188 11.234375 -10.578125 C 10.773438 -11.160156 10.21875 -11.601562 9.5625 -11.90625 C 8.90625 -12.207031 8.222656 -12.359375 7.515625 -12.359375 C 6.984375 -12.359375 6.4375 -12.25 5.875 -12.03125 C 5.320312 -11.820312 4.816406 -11.488281 4.359375 -11.03125 C 3.910156 -10.582031 3.546875 -10.007812 3.265625 -9.3125 C 2.984375 -8.613281 2.84375 -7.785156 2.84375 -6.828125 C 2.84375 -5.785156 3.054688 -4.835938 3.484375 -3.984375 C 3.910156 -3.140625 4.523438 -2.46875 5.328125 -1.96875 C 6.128906 -1.46875 7.09375 -1.21875 8.21875 -1.21875 C 8.832031 -1.21875 9.382812 -1.304688 9.875 -1.484375 C 10.375 -1.660156 10.8125 -1.894531 11.1875 -2.1875 C 11.5625 -2.476562 11.875 -2.785156 12.125 -3.109375 C 12.3125 -3.265625 12.503906 -3.34375 12.703125 -3.34375 C 12.878906 -3.34375 13.035156 -3.269531 13.171875 -3.125 C 13.304688 -2.988281 13.375 -2.832031 13.375 -2.65625 C 13.375 -2.445312 13.285156 -2.257812 13.109375 -2.09375 C 12.578125 -1.457031 11.882812 -0.90625 11.03125 -0.4375 C 10.175781 0.03125 9.242188 0.265625 8.234375 0.265625 Z M 8.234375 0.265625 "/></g></g></g><g fill="#e6e6dd" fill-opacity="1"><g transform="translate(28.607779, 104.549732)"><g><path d="M 8.125 -5.4375 C 4.019531 -9.914062 1.96875 -15.40625 1.96875 -21.90625 C 1.96875 -28.414062 4.019531 -33.921875 8.125 -38.421875 C 12.238281 -42.929688 17.460938 -45.1875 23.796875 -45.1875 C 29.617188 -45.1875 34.410156 -43.363281 38.171875 -39.71875 L 38.171875 -73.609375 L 53.328125 -73.609375 L 53.328125 0 L 38.34375 0 L 38.34375 -4.96875 L 38.171875 -4.96875 C 34.410156 -0.800781 29.617188 1.28125 23.796875 1.28125 C 17.460938 1.28125 12.238281 -0.957031 8.125 -5.4375 Z M 21.015625 -29.359375 C 19.046875 -27.421875 18.0625 -24.9375 18.0625 -21.90625 C 18.0625 -18.882812 19 -16.414062 20.875 -14.5 C 22.757812 -12.59375 25.242188 -11.640625 28.328125 -11.640625 C 31.296875 -11.640625 33.734375 -12.609375 35.640625 -14.546875 C 37.554688 -16.492188 38.515625 -18.945312 38.515625 -21.90625 C 38.515625 -24.9375 37.53125 -27.421875 35.5625 -29.359375 C 33.59375 -31.296875 31.179688 -32.265625 28.328125 -32.265625 C 25.421875 -32.265625 22.984375 -31.296875 21.015625 -29.359375 Z M 21.015625 -29.359375 "/></g></g></g><g fill="#e6e6dd" fill-opacity="1"><g transform="translate(81.071891, 104.549732)"><g><path d="M 5.140625 0 L 5.140625 -43.90625 L 20.28125 -43.90625 L 20.28125 -37.578125 L 20.453125 -37.578125 C 20.566406 -37.804688 20.75 -38.085938 21 -38.421875 C 21.257812 -38.765625 21.816406 -39.363281 22.671875 -40.21875 C 23.535156 -41.082031 24.453125 -41.851562 25.421875 -42.53125 C 26.390625 -43.21875 27.644531 -43.832031 29.1875 -44.375 C 30.726562 -44.914062 32.296875 -45.1875 33.890625 -45.1875 C 35.546875 -45.1875 37.171875 -44.957031 38.765625 -44.5 C 40.367188 -44.050781 41.539062 -43.597656 42.28125 -43.140625 L 43.484375 -42.453125 L 37.140625 -29.609375 C 35.265625 -31.210938 32.640625 -32.015625 29.265625 -32.015625 C 27.441406 -32.015625 25.875 -31.613281 24.5625 -30.8125 C 23.25 -30.007812 22.320312 -29.035156 21.78125 -27.890625 C 21.238281 -26.753906 20.851562 -25.785156 20.625 -24.984375 C 20.394531 -24.191406 20.28125 -23.566406 20.28125 -23.109375 L 20.28125 0 Z M 5.140625 0 "/></g></g></g><g fill="#e6e6dd" fill-opacity="1"><g transform="translate(117.702391, 104.549732)"><g><path d="M 49.5625 -19.859375 L 17.71875 -19.859375 C 17.71875 -16.773438 18.710938 -14.488281 20.703125 -13 C 22.703125 -11.519531 24.875 -10.78125 27.21875 -10.78125 C 29.675781 -10.78125 31.613281 -11.109375 33.03125 -11.765625 C 34.457031 -12.421875 36.085938 -13.71875 37.921875 -15.65625 L 48.875 -10.1875 C 44.3125 -2.539062 36.722656 1.28125 26.109375 1.28125 C 19.484375 1.28125 13.800781 -0.984375 9.0625 -5.515625 C 4.332031 -10.054688 1.96875 -15.519531 1.96875 -21.90625 C 1.96875 -28.300781 4.332031 -33.78125 9.0625 -38.34375 C 13.800781 -42.90625 19.484375 -45.1875 26.109375 -45.1875 C 33.066406 -45.1875 38.726562 -43.175781 43.09375 -39.15625 C 47.457031 -35.132812 49.640625 -29.382812 49.640625 -21.90625 C 49.640625 -20.882812 49.613281 -20.203125 49.5625 -19.859375 Z M 18.140625 -28.25 L 34.84375 -28.25 C 34.5 -30.53125 33.597656 -32.28125 32.140625 -33.5 C 30.679688 -34.726562 28.8125 -35.34375 26.53125 -35.34375 C 24.019531 -35.34375 22.019531 -34.6875 20.53125 -33.375 C 19.050781 -32.0625 18.253906 -30.351562 18.140625 -28.25 Z M 18.140625 -28.25 "/></g></g></g><g fill="#e6e6dd" fill-opacity="1"><g transform="translate(163.319523, 104.549732)"><g><path d="M 8.125 -5.4375 C 4.019531 -9.914062 1.96875 -15.40625 1.96875 -21.90625 C 1.96875 -28.414062 4.019531 -33.921875 8.125 -38.421875 C 12.238281 -42.929688 17.460938 -45.1875 23.796875 -45.1875 C 29.617188 -45.1875 34.410156 -43.363281 38.171875 -39.71875 L 38.171875 -43.90625 L 53.328125 -43.90625 L 53.328125 0 L 38.34375 0 L 38.34375 -4.96875 L 38.171875 -4.96875 C 34.410156 -0.800781 29.617188 1.28125 23.796875 1.28125 C 17.460938 1.28125 12.238281 -0.957031 8.125 -5.4375 Z M 21.015625 -29.359375 C 19.046875 -27.421875 18.0625 -24.9375 18.0625 -21.90625 C 18.0625 -18.882812 19 -16.414062 20.875 -14.5 C 22.757812 -12.59375 25.242188 -11.640625 28.328125 -11.640625 C 31.296875 -11.640625 33.734375 -12.609375 35.640625 -14.546875 C 37.554688 -16.492188 38.515625 -18.945312 38.515625 -21.90625 C 38.515625 -24.9375 37.53125 -27.421875 35.5625 -29.359375 C 33.59375 -31.296875 31.179688 -32.265625 28.328125 -32.265625 C 25.421875 -32.265625 22.984375 -31.296875 21.015625 -29.359375 Z M 21.015625 -29.359375 "/></g></g></g><g fill="#e6e6dd" fill-opacity="1"><g transform="translate(215.783639, 104.549732)"><g><path d="M 5.140625 0 L 5.140625 -43.90625 L 20.28125 -43.90625 L 20.28125 -39.28125 L 20.453125 -39.28125 C 24.390625 -43.21875 28.585938 -45.1875 33.046875 -45.1875 C 36.234375 -45.1875 39.222656 -44.53125 42.015625 -43.21875 C 44.816406 -41.90625 46.929688 -39.878906 48.359375 -37.140625 C 52.804688 -42.503906 57.65625 -45.1875 62.90625 -45.1875 C 67.59375 -45.1875 71.617188 -43.875 74.984375 -41.25 C 78.347656 -38.625 80.03125 -34.519531 80.03125 -28.9375 L 80.03125 0 L 64.875 0 L 64.875 -24.828125 C 64.875 -27.160156 64.234375 -29.113281 62.953125 -30.6875 C 61.671875 -32.257812 59.742188 -33.046875 57.171875 -33.046875 C 54.953125 -33.046875 53.253906 -32.375 52.078125 -31.03125 C 50.910156 -29.6875 50.269531 -28.070312 50.15625 -26.1875 L 50.15625 0 L 35.015625 0 L 35.015625 -24.828125 C 35.015625 -27.160156 34.367188 -29.113281 33.078125 -30.6875 C 31.796875 -32.257812 29.867188 -33.046875 27.296875 -33.046875 C 24.960938 -33.046875 23.207031 -32.316406 22.03125 -30.859375 C 20.863281 -29.398438 20.28125 -27.671875 20.28125 -25.671875 L 20.28125 0 Z M 5.140625 0 "/></g></g></g><g fill="#e6e6dd" fill-opacity="1"><g transform="translate(294.110552, 104.549732)"><g/></g></g><g fill="#e6e6dd" fill-opacity="1"><g transform="translate(100.60807, 173.171846)"><g><path d="M 50.328125 -38.421875 C 54.429688 -33.921875 56.484375 -28.414062 56.484375 -21.90625 C 56.484375 -15.40625 54.429688 -9.914062 50.328125 -5.4375 C 46.222656 -0.957031 41.003906 1.28125 34.671875 1.28125 C 28.847656 1.28125 24.050781 -0.800781 20.28125 -4.96875 L 20.109375 -4.96875 L 20.109375 0 L 5.140625 0 L 5.140625 -73.609375 L 20.28125 -73.609375 L 20.28125 -39.71875 C 24.050781 -43.363281 28.847656 -45.1875 34.671875 -45.1875 C 41.003906 -45.1875 46.222656 -42.929688 50.328125 -38.421875 Z M 37.578125 -14.5 C 39.460938 -16.414062 40.40625 -18.882812 40.40625 -21.90625 C 40.40625 -24.9375 39.421875 -27.421875 37.453125 -29.359375 C 35.484375 -31.296875 33.039062 -32.265625 30.125 -32.265625 C 27.269531 -32.265625 24.859375 -31.296875 22.890625 -29.359375 C 20.921875 -27.421875 19.9375 -24.9375 19.9375 -21.90625 C 19.9375 -18.945312 20.890625 -16.492188 22.796875 -14.546875 C 24.710938 -12.609375 27.15625 -11.640625 30.125 -11.640625 C 33.207031 -11.640625 35.691406 -12.59375 37.578125 -14.5 Z M 37.578125 -14.5 "/></g></g></g><g fill="#e6e6dd" fill-opacity="1"><g transform="translate(153.072181, 173.171846)"><g><path d="M 6.59375 -68.390625 C 8.363281 -70.160156 10.472656 -71.046875 12.921875 -71.046875 C 15.378906 -71.046875 17.488281 -70.160156 19.25 -68.390625 C 21.019531 -66.617188 21.90625 -64.503906 21.90625 -62.046875 C 21.90625 -59.597656 21.019531 -57.488281 19.25 -55.71875 C 17.488281 -53.945312 15.378906 -53.0625 12.921875 -53.0625 C 10.472656 -53.0625 8.363281 -53.945312 6.59375 -55.71875 C 4.820312 -57.488281 3.9375 -59.597656 3.9375 -62.046875 C 3.9375 -64.503906 4.820312 -66.617188 6.59375 -68.390625 Z M 5.140625 -43.90625 L 5.140625 0 L 20.28125 0 L 20.28125 -43.90625 Z M 5.140625 -43.90625 "/></g></g></g><g fill="#e6e6dd" fill-opacity="1"><g transform="translate(172.927602, 173.171846)"><g><path d="M 7.703125 -43.90625 L 7.703125 -60.265625 L 22.859375 -60.265625 L 22.859375 -43.90625 L 32.09375 -43.90625 L 32.09375 -32.359375 L 22.859375 -32.359375 L 22.859375 -18.40625 C 22.859375 -14.351562 24 -12.328125 26.28125 -12.328125 C 26.851562 -12.328125 27.453125 -12.441406 28.078125 -12.671875 C 28.703125 -12.898438 29.1875 -13.128906 29.53125 -13.359375 L 30.046875 -13.6875 L 33.8125 -1.453125 C 30.5625 0.367188 26.851562 1.28125 22.6875 1.28125 C 19.832031 1.28125 17.375 0.78125 15.3125 -0.21875 C 13.257812 -1.21875 11.707031 -2.554688 10.65625 -4.234375 C 9.601562 -5.921875 8.847656 -7.691406 8.390625 -9.546875 C 7.929688 -11.398438 7.703125 -13.382812 7.703125 -15.5 L 7.703125 -32.359375 L 1.375 -32.359375 L 1.375 -43.90625 Z M 7.703125 -43.90625 "/></g></g></g><g fill="#e6e6dd" fill-opacity="1"><g transform="translate(200.742611, 173.171846)"><g><path d="M 49.5625 -19.859375 L 17.71875 -19.859375 C 17.71875 -16.773438 18.710938 -14.488281 20.703125 -13 C 22.703125 -11.519531 24.875 -10.78125 27.21875 -10.78125 C 29.675781 -10.78125 31.613281 -11.109375 33.03125 -11.765625 C 34.457031 -12.421875 36.085938 -13.71875 37.921875 -15.65625 L 48.875 -10.1875 C 44.3125 -2.539062 36.722656 1.28125 26.109375 1.28125 C 19.484375 1.28125 13.800781 -0.984375 9.0625 -5.515625 C 4.332031 -10.054688 1.96875 -15.519531 1.96875 -21.90625 C 1.96875 -28.300781 4.332031 -33.78125 9.0625 -38.34375 C 13.800781 -42.90625 19.484375 -45.1875 26.109375 -45.1875 C 33.066406 -45.1875 38.726562 -43.175781 43.09375 -39.15625 C 47.457031 -35.132812 49.640625 -29.382812 49.640625 -21.90625 C 49.640625 -20.882812 49.613281 -20.203125 49.5625 -19.859375 Z M 18.140625 -28.25 L 34.84375 -28.25 C 34.5 -30.53125 33.597656 -32.28125 32.140625 -33.5 C 30.679688 -34.726562 28.8125 -35.34375 26.53125 -35.34375 C 24.019531 -35.34375 22.019531 -34.6875 20.53125 -33.375 C 19.050781 -32.0625 18.253906 -30.351562 18.140625 -28.25 Z M 18.140625 -28.25 "/></g></g></g></svg>